<svg height="512" viewBox="0 0 512 512" width="512" xmlns="http://www.w3.org/2000/svg"><g><g><rect fill="#3e3d42" height="448" rx="20" width="304" x="104" y="16"/><path d="m271.74 302.98a120 120 0 1 0 -31.48 0" fill="#e0e0e2"/><circle cx="256" cy="184" fill="#ffda44" r="32"/><path d="m136 464h240v32h-240z" fill="#ffda44"/><path d="m280 336h-48l16-64h16z" fill="#ffda44"/><g fill="#e0e0e2"><path d="m128 344h80v96h-80z"/><path d="m208 408h48v32h-48z"/><path d="m384 376v64h-80v-32h48v-32z"/></g><path d="m152 368h32v48h-32z" fill="#787680"/><circle cx="144" cy="56" fill="#ffda44" r="16"/><circle cx="368" cy="56" fill="#ffda44" r="16"/></g><g><path d="m388 8h-264a28.031 28.031 0 0 0 -28 28v408a28.031 28.031 0 0 0 28 28h4v24a8 8 0 0 0 8 8h240a8 8 0 0 0 8-8v-24h4a28.031 28.031 0 0 0 28-28v-408a28.031 28.031 0 0 0 -28-28zm-20 480h-224v-16h224zm32-44a12.01 12.01 0 0 1 -12 12h-264a12.01 12.01 0 0 1 -12-12v-408a12.01 12.01 0 0 1 12-12h264a12.01 12.01 0 0 1 12 12z"/><path d="m296 184a40 40 0 1 0 -40 40 40.045 40.045 0 0 0 40-40zm-64 0a24 24 0 1 1 24 24 24.028 24.028 0 0 1 -24-24z"/><path d="m281.606 309.44a128 128 0 1 0 -51.212 0l-6.155 24.62a8 8 0 0 0 7.761 9.94h48a8 8 0 0 0 7.761-9.94zm-137.606-125.44a112 112 0 1 1 133.72 109.894l-5.959-23.834a8 8 0 0 0 -7.761-6.06h-16a8 8 0 0 0 -7.761 6.06l-5.959 23.834a112.276 112.276 0 0 1 -90.28-109.894zm98.246 144 5.762-23.049c.017-.066.035-.132.05-.2l6.188-24.751h3.508l6.177 24.708c.015.068.034.135.05.2l5.773 23.092z"/><path d="m256 400h-40v-56a8 8 0 0 0 -8-8h-80a8 8 0 0 0 -8 8v96a8 8 0 0 0 8 8h128a8 8 0 0 0 8-8v-32a8 8 0 0 0 -8-8zm-56 32h-64v-80h64zm48 0h-32v-16h32z"/><path d="m384 368h-32a8 8 0 0 0 -8 8v24h-40a8 8 0 0 0 -8 8v32a8 8 0 0 0 8 8h80a8 8 0 0 0 8-8v-64a8 8 0 0 0 -8-8zm-8 64h-64v-16h40a8 8 0 0 0 8-8v-24h16z"/><path d="m184 360h-32a8 8 0 0 0 -8 8v48a8 8 0 0 0 8 8h32a8 8 0 0 0 8-8v-48a8 8 0 0 0 -8-8zm-8 48h-16v-32h16z"/><path d="m144 80a24 24 0 1 0 -24-24 24.027 24.027 0 0 0 24 24zm0-32a8 8 0 1 1 -8 8 8.009 8.009 0 0 1 8-8z"/><path d="m368 32a24 24 0 1 0 24 24 24.027 24.027 0 0 0 -24-24zm0 32a8 8 0 1 1 8-8 8.009 8.009 0 0 1 -8 8z"/></g></g></svg>