<svg height="512" viewBox="0 0 512 512" width="512" xmlns="http://www.w3.org/2000/svg"><g><g><path d="m16 368h480a0 0 0 0 1 0 0v28a20 20 0 0 1 -20 20h-440a20 20 0 0 1 -20-20v-28a0 0 0 0 1 0 0z" fill="#e0e0e2"/><path d="m296 392h-80l-8-24h96z" fill="#787680"/><path d="m76 96h360a20 20 0 0 1 20 20v252a0 0 0 0 1 0 0h-400a0 0 0 0 1 0 0v-252a20 20 0 0 1 20-20z" fill="#3e3d42"/><path d="m80 120h352v224h-352z" fill="#78b9eb"/></g><g><path d="m496 360h-32v-244a28.031 28.031 0 0 0 -28-28h-360a28.031 28.031 0 0 0 -28 28v244h-32a8 8 0 0 0 -8 8v28a28.031 28.031 0 0 0 28 28h440a28.031 28.031 0 0 0 28-28v-28a8 8 0 0 0 -8-8zm-432-244a12.01 12.01 0 0 1 12-12h360a12.01 12.01 0 0 1 12 12v244h-384zm228.9 260-2.67 8h-68.46l-2.67-8zm195.1 20a12.01 12.01 0 0 1 -12 12h-440a12.01 12.01 0 0 1 -12-12v-20h178.23l6.18 18.53a8 8 0 0 0 7.59 5.47h80a8 8 0 0 0 7.59-5.47l6.18-18.53h178.23z"/><path d="m440 344v-224a8 8 0 0 0 -8-8h-352a8 8 0 0 0 -8 8v224a8 8 0 0 0 8 8h352a8 8 0 0 0 8-8zm-16-8h-336v-208h336z"/></g></g></svg>