<svg height="512" viewBox="0 0 512 512" width="512" xmlns="http://www.w3.org/2000/svg"><g><g><path d="m496 60v284h-480v-284a19.994 19.994 0 0 1 20-20h440a19.994 19.994 0 0 1 20 20z" fill="#78b9eb"/><path d="m496 344v28a19.994 19.994 0 0 1 -20 20h-440a19.994 19.994 0 0 1 -20-20v-28z" fill="#e0e0e2"/><path d="m328 440h-144l16-48h111z" fill="#787680"/><path d="m144 440h224v32h-224z" fill="#e0e0e2"/></g><g><path d="m476 32h-440a28.031 28.031 0 0 0 -28 28v312a28.031 28.031 0 0 0 28 28h152.9l-10.67 32h-34.23a8 8 0 0 0 -8 8v32a8 8 0 0 0 8 8h224a8 8 0 0 0 8-8v-32a8 8 0 0 0 -8-8h-34.35l-11.33-32h153.68a28.031 28.031 0 0 0 28-28v-312a28.031 28.031 0 0 0 -28-28zm-116 416v16h-208v-16zm-164.9-16 10.67-32h99.58l11.33 32zm292.9-60a12.01 12.01 0 0 1 -12 12h-440a12.01 12.01 0 0 1 -12-12v-20h464zm0-36h-464v-276a12.01 12.01 0 0 1 12-12h440a12.01 12.01 0 0 1 12 12z"/><path d="m272 360h-32a8 8 0 0 0 0 16h32a8 8 0 0 0 0-16z"/></g></g></svg>