<svg height="512" viewBox="0 0 512 512" width="512" xmlns="http://www.w3.org/2000/svg"><g><g><path d="m392 296v64a136 136 0 0 1 -272 0v-64z" fill="#acabb1"/><path d="m392 248v48h-272v-48a136 136 0 1 1 272 0z" fill="#e0e0e2"/><rect fill="#3e3d42" height="96" rx="20" width="48" x="232" y="160"/><path d="m224 88h64v24h-64z" fill="#acabb1"/><path d="m240 16h32v72h-32z" fill="#e0e0e2"/></g><path d="m296 109.66v-21.66a8 8 0 0 0 -8-8h-8v-64a8 8 0 0 0 -8-8h-32a8 8 0 0 0 -8 8v64h-8a8 8 0 0 0 -8 8v21.66c-60 17.37-104 72.81-104 138.34v112c0 79.4 64.6 144 144 144s144-64.6 144-144v-112c0-65.53-44-120.97-104-138.34zm-48-85.66h16v56h-16zm-16 72h48v8h-48zm28 72a12.01 12.01 0 0 1 12 12v56a12.01 12.01 0 0 1 -12 12h-8a12.01 12.01 0 0 1 -12-12v-56a12.01 12.01 0 0 1 12-12zm-132 80c0-67.89 53.13-123.6 120-127.74v32.03a28.043 28.043 0 0 0 -24 27.71v56a28.043 28.043 0 0 0 24 27.71v24.29h-120zm256 112a128 128 0 0 1 -256 0v-56h256zm0-72h-120v-24.29a28.043 28.043 0 0 0 24-27.71v-56a28.043 28.043 0 0 0 -24-27.71v-32.03c66.87 4.14 120 59.85 120 127.74z"/></g></svg>