<svg height="512" viewBox="0 0 512 512" width="512" xmlns="http://www.w3.org/2000/svg"><g><g><path d="m304 392v36a19.994 19.994 0 0 0 20 20h152a19.994 19.994 0 0 0 20-20v-344a19.994 19.994 0 0 0 -20-20h-152a19.994 19.994 0 0 0 -20 20v60" fill="#3e3d42"/><rect fill="#e0e0e2" height="248" rx="20" width="352" x="16" y="144"/><path d="m240 424h-96l8-32h80z" fill="#787680"/><path d="m120 424h144v24h-144z" fill="#e0e0e2"/><path d="m336 88h128v32h-128z" fill="#e0e0e2"/><circle cx="400" cy="400" fill="#ffda44" r="16"/><path d="m40 168h304v200h-304z" fill="#78b9eb"/></g><g><path d="m476 56h-152a28.031 28.031 0 0 0 -28 28v52h-260a28.031 28.031 0 0 0 -28 28v208a28.031 28.031 0 0 0 28 28h105.75l-4 16h-17.75a8 8 0 0 0 -8 8v24a8 8 0 0 0 8 8h144a8 8 0 0 0 8-8v-24a8 8 0 0 0 -8-8h-17.75l-4-16h53.75v28a28.031 28.031 0 0 0 28 28h152a28.031 28.031 0 0 0 28-28v-344a28.031 28.031 0 0 0 -28-28zm-220 376v8h-128v-8zm-101.75-16 4-16h67.5l4 16zm-118.25-32a12.01 12.01 0 0 1 -12-12v-208a12.01 12.01 0 0 1 12-12h312a12.01 12.01 0 0 1 12 12v208a12.01 12.01 0 0 1 -12 12zm452 44a12.01 12.01 0 0 1 -12 12h-152a12.01 12.01 0 0 1 -12-12v-28h36a28.031 28.031 0 0 0 28-28v-208a28.031 28.031 0 0 0 -28-28h-36v-52a12.01 12.01 0 0 1 12-12h152a12.01 12.01 0 0 1 12 12z"/><path d="m464 80h-128a8 8 0 0 0 -8 8v32a8 8 0 0 0 8 8h128a8 8 0 0 0 8-8v-32a8 8 0 0 0 -8-8zm-8 32h-112v-16h112z"/><path d="m400 376a24 24 0 1 0 24 24 24.028 24.028 0 0 0 -24-24zm0 32a8 8 0 1 1 8-8 8.009 8.009 0 0 1 -8 8z"/><path d="m352 368v-200a8 8 0 0 0 -8-8h-304a8 8 0 0 0 -8 8v200a8 8 0 0 0 8 8h304a8 8 0 0 0 8-8zm-16-8h-288v-184h288z"/></g></g></svg>