<svg height="512" viewBox="0 0 512 512" width="512" xmlns="http://www.w3.org/2000/svg"><g><g><path d="m344 392h132a19.994 19.994 0 0 0 20-20v-184a19.994 19.994 0 0 0 -20-20h-440a19.994 19.994 0 0 0 -20 20v184a19.994 19.994 0 0 0 20 20h132" fill="#acabb1"/><g fill="#3e3d42"><path d="m344 360h32v-48h-240v48h32"/><path d="m344 128h32v40h-32z"/><path d="m136 128h32v40h-32z"/></g><circle cx="56" cy="208" fill="#ffda44" r="16"/><circle cx="112" cy="208" fill="#ffda44" r="16"/><path d="m168 336h176v120h-176z" fill="#e0e0e2"/><path d="m168 56h176v112h-176z" fill="#e0e0e2"/></g><g><path d="m476 160h-92v-32a8 8 0 0 0 -8-8h-24v-64a8 8 0 0 0 -8-8h-176a8 8 0 0 0 -8 8v64h-24a8 8 0 0 0 -8 8v32h-92a28.031 28.031 0 0 0 -28 28v184a28.031 28.031 0 0 0 28 28h124v56a8 8 0 0 0 8 8h176a8 8 0 0 0 8-8v-56h124a28.031 28.031 0 0 0 28-28v-184a28.031 28.031 0 0 0 -28-28zm-124-24h16v24h-16zm-176-72h160v96h-160zm-32 72h16v24h-16zm192 312h-160v-104h160zm8-120h-176a8 8 0 0 0 -8 8v16h-16v-32h224v32h-16v-16a8 8 0 0 0 -8-8zm144 44a12.01 12.01 0 0 1 -12 12h-124v-16h24a8 8 0 0 0 8-8v-48a8 8 0 0 0 -8-8h-240a8 8 0 0 0 -8 8v48a8 8 0 0 0 8 8h24v16h-124a12.01 12.01 0 0 1 -12-12v-184a12.01 12.01 0 0 1 12-12h440a12.01 12.01 0 0 1 12 12z"/><path d="m56 184a24 24 0 1 0 24 24 24.028 24.028 0 0 0 -24-24zm0 32a8 8 0 1 1 8-8 8.009 8.009 0 0 1 -8 8z"/><path d="m112 184a24 24 0 1 0 24 24 24.028 24.028 0 0 0 -24-24zm0 32a8 8 0 1 1 8-8 8.009 8.009 0 0 1 -8 8z"/></g></g></svg>